<svg width="87" height="59" viewBox="0 0 87 59" fill="none" xmlns="http://www.w3.org/2000/svg">
<path d="M0.967999 17L14.12 17L14.12 39.848H0.967999V35.88H9.288V30.856H1.544L1.544 26.888H9.288L9.288 21H0.967999L0.967999 17Z" fill="#3DCFB6"/>
<path d="M19.648 39.86H14.88V17.012H27.968V20.98H19.648V26.868H27.392V30.836H19.648V39.86Z" fill="#3DCFB6"/>
<path d="M37.944 27H32.358V17.004H37.944V18.11H33.618V21.232H37.692V22.324H33.618V25.894H37.944V27ZM46.2413 19.496V27H45.2333L45.0513 26.006H44.9953C44.8366 26.2673 44.6313 26.482 44.3793 26.65C44.1273 26.818 43.852 26.9393 43.5533 27.014C43.2546 27.098 42.942 27.14 42.6153 27.14C42.018 27.14 41.514 27.0467 41.1033 26.86C40.702 26.664 40.3986 26.3653 40.1933 25.964C39.988 25.5627 39.8853 25.0447 39.8853 24.41V19.496H41.1313V24.326C41.1313 24.9233 41.2666 25.3713 41.5373 25.67C41.808 25.9687 42.228 26.118 42.7973 26.118C43.3573 26.118 43.796 26.0153 44.1133 25.81C44.44 25.5953 44.6686 25.2873 44.7993 24.886C44.9393 24.4753 45.0093 23.9807 45.0093 23.402V19.496H46.2413ZM51.2836 19.356C51.7783 19.356 52.2216 19.4493 52.6136 19.636C53.0149 19.8227 53.3556 20.1073 53.6356 20.49H53.7056L53.8736 19.496H54.8536V27.126C54.8536 27.8353 54.7323 28.428 54.4896 28.904C54.2469 29.3893 53.8783 29.7533 53.3836 29.996C52.8889 30.2387 52.2589 30.36 51.4936 30.36C50.9523 30.36 50.4529 30.318 49.9956 30.234C49.5476 30.1593 49.1463 30.0427 48.7916 29.884V28.75C49.0343 28.8713 49.3003 28.974 49.5896 29.058C49.8789 29.1513 50.1916 29.2213 50.5276 29.268C50.8636 29.3147 51.2089 29.338 51.5636 29.338C52.2076 29.338 52.7116 29.1467 53.0756 28.764C53.4489 28.3907 53.6356 27.8773 53.6356 27.224V26.93C53.6356 26.818 53.6403 26.6593 53.6496 26.454C53.6589 26.2393 53.6683 26.09 53.6776 26.006H53.6216C53.3603 26.3887 53.0336 26.6733 52.6416 26.86C52.2589 27.0467 51.8109 27.14 51.2976 27.14C50.3269 27.14 49.5663 26.7993 49.0156 26.118C48.4743 25.4367 48.2036 24.4847 48.2036 23.262C48.2036 22.4593 48.3249 21.7687 48.5676 21.19C48.8196 20.602 49.1743 20.1493 49.6316 19.832C50.0889 19.5147 50.6396 19.356 51.2836 19.356ZM51.4516 20.392C51.0316 20.392 50.6723 20.504 50.3736 20.728C50.0843 20.952 49.8603 21.2787 49.7016 21.708C49.5523 22.1373 49.4776 22.66 49.4776 23.276C49.4776 24.2 49.6456 24.9093 49.9816 25.404C50.3269 25.8893 50.8263 26.132 51.4796 26.132C51.8623 26.132 52.1889 26.0853 52.4596 25.992C52.7303 25.8893 52.9543 25.7353 53.1316 25.53C53.3089 25.3153 53.4396 25.0447 53.5236 24.718C53.6076 24.3913 53.6496 24.004 53.6496 23.556V23.262C53.6496 22.5807 53.5703 22.03 53.4116 21.61C53.2623 21.19 53.0243 20.882 52.6976 20.686C52.3709 20.49 51.9556 20.392 51.4516 20.392ZM60.1349 19.356C60.7789 19.356 61.3295 19.496 61.7869 19.776C62.2535 20.056 62.6082 20.4527 62.8509 20.966C63.1029 21.47 63.2289 22.0627 63.2289 22.744V23.486H58.0909C58.1095 24.3353 58.3242 24.984 58.7349 25.432C59.1549 25.8707 59.7382 26.09 60.4849 26.09C60.9609 26.09 61.3809 26.048 61.7449 25.964C62.1182 25.8707 62.5009 25.74 62.8929 25.572V26.65C62.5102 26.818 62.1322 26.9393 61.7589 27.014C61.3855 27.098 60.9422 27.14 60.4289 27.14C59.7195 27.14 59.0895 26.9953 58.5389 26.706C57.9975 26.4167 57.5729 25.9873 57.2649 25.418C56.9662 24.8393 56.8169 24.1347 56.8169 23.304C56.8169 22.4827 56.9522 21.778 57.2229 21.19C57.5029 20.602 57.8902 20.1493 58.3849 19.832C58.8889 19.5147 59.4722 19.356 60.1349 19.356ZM60.1209 20.364C59.5329 20.364 59.0662 20.5553 58.7209 20.938C58.3849 21.3113 58.1842 21.834 58.1189 22.506H61.9409C61.9409 22.0767 61.8755 21.7033 61.7449 21.386C61.6142 21.0687 61.4135 20.8213 61.1429 20.644C60.8815 20.4573 60.5409 20.364 60.1209 20.364ZM68.7512 19.356C69.6472 19.356 70.3239 19.5753 70.7812 20.014C71.2386 20.4433 71.4672 21.1433 71.4672 22.114V27H70.2492V22.198C70.2492 21.5913 70.1139 21.1387 69.8432 20.84C69.5726 20.5413 69.1479 20.392 68.5692 20.392C67.7386 20.392 67.1646 20.6253 66.8472 21.092C66.5299 21.5587 66.3712 22.2307 66.3712 23.108V27H65.1392V19.496H66.1332L66.3152 20.518H66.3852C66.5532 20.2567 66.7586 20.042 67.0012 19.874C67.2532 19.6967 67.5286 19.566 67.8272 19.482C68.1259 19.398 68.4339 19.356 68.7512 19.356Z" fill="white"/>
<path d="M33.618 40H32.358V30.004H37.944V31.11H33.618V34.652H37.678V35.758H33.618V40ZM42.3478 32.356C42.9918 32.356 43.5424 32.496 43.9998 32.776C44.4664 33.056 44.8211 33.4527 45.0638 33.966C45.3158 34.47 45.4418 35.0627 45.4418 35.744V36.486H40.3038C40.3224 37.3353 40.5371 37.984 40.9478 38.432C41.3678 38.8707 41.9511 39.09 42.6978 39.09C43.1738 39.09 43.5938 39.048 43.9578 38.964C44.3311 38.8707 44.7138 38.74 45.1058 38.572V39.65C44.7231 39.818 44.3451 39.9393 43.9718 40.014C43.5984 40.098 43.1551 40.14 42.6418 40.14C41.9324 40.14 41.3024 39.9953 40.7518 39.706C40.2104 39.4167 39.7858 38.9873 39.4778 38.418C39.1791 37.8393 39.0298 37.1347 39.0298 36.304C39.0298 35.4827 39.1651 34.778 39.4358 34.19C39.7158 33.602 40.1031 33.1493 40.5978 32.832C41.1018 32.5147 41.6851 32.356 42.3478 32.356ZM42.3338 33.364C41.7458 33.364 41.2791 33.5553 40.9338 33.938C40.5978 34.3113 40.3971 34.834 40.3318 35.506H44.1538C44.1538 35.0767 44.0884 34.7033 43.9578 34.386C43.8271 34.0687 43.6264 33.8213 43.3558 33.644C43.0944 33.4573 42.7538 33.364 42.3338 33.364ZM50.8521 32.356C50.9921 32.356 51.1414 32.3653 51.3001 32.384C51.4681 32.3933 51.6128 32.412 51.7341 32.44L51.5801 33.574C51.4588 33.546 51.3234 33.5227 51.1741 33.504C51.0341 33.4853 50.8988 33.476 50.7681 33.476C50.4788 33.476 50.2034 33.5367 49.9421 33.658C49.6808 33.7793 49.4474 33.952 49.2421 34.176C49.0368 34.3907 48.8734 34.652 48.7521 34.96C48.6401 35.268 48.5841 35.6133 48.5841 35.996V40H47.3521V32.496H48.3601L48.5001 33.868H48.5561C48.7148 33.588 48.9061 33.336 49.1301 33.112C49.3541 32.8787 49.6108 32.6967 49.9001 32.566C50.1894 32.426 50.5068 32.356 50.8521 32.356ZM55.8719 40.14C55.2092 40.14 54.6165 40.0047 54.0939 39.734C53.5805 39.4633 53.1745 39.0433 52.8759 38.474C52.5865 37.9047 52.4419 37.1767 52.4419 36.29C52.4419 35.366 52.5959 34.6147 52.9039 34.036C53.2119 33.4573 53.6272 33.0327 54.1499 32.762C54.6819 32.4913 55.2839 32.356 55.9559 32.356C56.3385 32.356 56.7072 32.398 57.0619 32.482C57.4165 32.5567 57.7059 32.65 57.9299 32.762L57.5519 33.784C57.3279 33.7 57.0665 33.6207 56.7679 33.546C56.4692 33.4713 56.1892 33.434 55.9279 33.434C55.4239 33.434 55.0085 33.5413 54.6819 33.756C54.3552 33.9707 54.1125 34.288 53.9539 34.708C53.7952 35.128 53.7159 35.6507 53.7159 36.276C53.7159 36.8733 53.7952 37.382 53.9539 37.802C54.1125 38.222 54.3505 38.5393 54.6679 38.754C54.9852 38.9687 55.3819 39.076 55.8579 39.076C56.2685 39.076 56.6279 39.034 56.9359 38.95C57.2532 38.866 57.5425 38.7633 57.8039 38.642V39.734C57.5519 39.8647 57.2719 39.9627 56.9639 40.028C56.6652 40.1027 56.3012 40.14 55.8719 40.14ZM60.8204 32.482C60.8204 32.6593 60.8111 32.8413 60.7924 33.028C60.7831 33.2147 60.7691 33.3827 60.7504 33.532H60.8344C60.9931 33.2707 61.1938 33.056 61.4364 32.888C61.6791 32.72 61.9498 32.594 62.2484 32.51C62.5471 32.4167 62.8551 32.37 63.1724 32.37C63.7791 32.37 64.2831 32.468 64.6844 32.664C65.0951 32.8507 65.4031 33.1447 65.6084 33.546C65.8138 33.9473 65.9164 34.47 65.9164 35.114V40H64.6984V35.198C64.6984 34.5913 64.5631 34.1387 64.2924 33.84C64.0218 33.5413 63.5971 33.392 63.0184 33.392C62.4584 33.392 62.0198 33.4993 61.7024 33.714C61.3851 33.9193 61.1564 34.2273 61.0164 34.638C60.8858 35.0393 60.8204 35.534 60.8204 36.122V40H59.5884V29.36H60.8204V32.482ZM74.7667 36.234C74.7667 36.8593 74.6827 37.4147 74.5147 37.9C74.3561 38.376 74.1227 38.782 73.8147 39.118C73.5161 39.454 73.1474 39.7107 72.7087 39.888C72.2794 40.056 71.7987 40.14 71.2667 40.14C70.7721 40.14 70.3147 40.056 69.8947 39.888C69.4747 39.7107 69.1107 39.454 68.8027 39.118C68.4947 38.782 68.2521 38.376 68.0747 37.9C67.9067 37.4147 67.8227 36.8593 67.8227 36.234C67.8227 35.4033 67.9627 34.7033 68.2427 34.134C68.5227 33.5553 68.9241 33.1167 69.4467 32.818C69.9694 32.51 70.5901 32.356 71.3087 32.356C71.9901 32.356 72.5874 32.51 73.1007 32.818C73.6234 33.1167 74.0294 33.5553 74.3187 34.134C74.6174 34.7033 74.7667 35.4033 74.7667 36.234ZM69.0967 36.234C69.0967 36.822 69.1714 37.3353 69.3207 37.774C69.4794 38.2033 69.7221 38.5347 70.0487 38.768C70.3754 39.0013 70.7907 39.118 71.2947 39.118C71.7987 39.118 72.2141 39.0013 72.5407 38.768C72.8674 38.5347 73.1054 38.2033 73.2547 37.774C73.4134 37.3353 73.4927 36.822 73.4927 36.234C73.4927 35.6367 73.4134 35.128 73.2547 34.708C73.0961 34.288 72.8534 33.966 72.5267 33.742C72.2094 33.5087 71.7941 33.392 71.2807 33.392C70.5154 33.392 69.9601 33.644 69.6147 34.148C69.2694 34.652 69.0967 35.3473 69.0967 36.234ZM81.2899 35.758C81.2339 35.562 81.1779 35.3707 81.1219 35.184C81.0659 34.988 81.0145 34.806 80.9679 34.638C80.9305 34.4607 80.8932 34.2973 80.8559 34.148C80.8185 33.9987 80.7905 33.8727 80.7719 33.77H80.7159C80.6972 33.8727 80.6692 33.9987 80.6319 34.148C80.6039 34.2973 80.5665 34.4607 80.5199 34.638C80.4825 34.8153 80.4359 35.002 80.3799 35.198C80.3332 35.3847 80.2772 35.576 80.2119 35.772L78.8679 39.986H77.4679L75.4099 32.482H76.6839L77.7199 36.486C77.7945 36.7567 77.8645 37.032 77.9299 37.312C77.9952 37.5827 78.0512 37.844 78.0979 38.096C78.1539 38.3387 78.1912 38.5487 78.2099 38.726H78.2659C78.2939 38.614 78.3265 38.474 78.3639 38.306C78.4012 38.138 78.4385 37.9607 78.4759 37.774C78.5225 37.5873 78.5692 37.4007 78.6159 37.214C78.6719 37.0273 78.7232 36.8593 78.7699 36.71L80.0999 32.482H81.4439L82.7319 36.71C82.7972 36.9247 82.8625 37.1533 82.9279 37.396C83.0025 37.6387 83.0679 37.8767 83.1239 38.11C83.1799 38.334 83.2172 38.5347 83.2359 38.712H83.2919C83.3105 38.5533 83.3432 38.3573 83.3899 38.124C83.4459 37.8813 83.5065 37.62 83.5719 37.34C83.6465 37.0507 83.7212 36.766 83.7959 36.486L84.8459 32.482H86.1059L84.0199 39.986H82.5779L81.2899 35.758Z" fill="white"/>
</svg>
