<svg width="90" height="59" viewBox="0 0 90 59" fill="none" xmlns="http://www.w3.org/2000/svg">
<path d="M0.967999 17L14.12 17L14.12 39.848H0.967999V35.88H9.288V30.856H1.544L1.544 26.888H9.288L9.288 21H0.967999L0.967999 17Z" fill="#3DCFB6"/>
<path d="M19.648 39.86H14.88V17.012H27.968V20.98H19.648V26.868H27.392V30.836H19.648V39.86Z" fill="#3DCFB6"/>
<path d="M38.014 27H32.26V17.004H38.014V18.74H34.374V20.938H37.762V22.674H34.374V25.25H38.014V27ZM46.94 19.356V27H45.344L45.064 26.02H44.952C44.7933 26.2813 44.588 26.496 44.336 26.664C44.0933 26.8227 43.8227 26.9393 43.524 27.014C43.2253 27.098 42.9173 27.14 42.6 27.14C42.0587 27.14 41.5827 27.042 41.172 26.846C40.7613 26.65 40.444 26.3467 40.22 25.936C39.996 25.5253 39.884 24.9933 39.884 24.34V19.356H41.97V23.822C41.97 24.3633 42.068 24.774 42.264 25.054C42.46 25.334 42.7727 25.474 43.202 25.474C43.6313 25.474 43.9627 25.376 44.196 25.18C44.4387 24.984 44.6067 24.6993 44.7 24.326C44.8027 23.9527 44.854 23.4953 44.854 22.954V19.356H46.94ZM51.6052 19.216C52.0718 19.216 52.4918 19.3093 52.8652 19.496C53.2385 19.6827 53.5558 19.9627 53.8172 20.336H53.8732L54.0412 19.356H55.8052V27.014C55.8052 27.742 55.6605 28.3533 55.3712 28.848C55.0912 29.3427 54.6665 29.716 54.0972 29.968C53.5278 30.2293 52.8232 30.36 51.9832 30.36C51.4418 30.36 50.9378 30.3273 50.4712 30.262C50.0138 30.1967 49.5658 30.08 49.1272 29.912V28.246C49.4445 28.3767 49.7618 28.484 50.0792 28.568C50.4058 28.6613 50.7372 28.7267 51.0732 28.764C51.4185 28.8107 51.7638 28.834 52.1092 28.834C52.6505 28.834 53.0518 28.6893 53.3132 28.4C53.5838 28.1107 53.7192 27.6767 53.7192 27.098V26.944C53.7192 26.7853 53.7238 26.622 53.7332 26.454C53.7518 26.286 53.7658 26.1367 53.7752 26.006H53.7192C53.4578 26.4073 53.1452 26.6967 52.7812 26.874C52.4172 27.0513 52.0065 27.14 51.5492 27.14C50.6438 27.14 49.9345 26.7947 49.4212 26.104C48.9172 25.404 48.6652 24.4333 48.6652 23.192C48.6652 22.352 48.7818 21.638 49.0152 21.05C49.2485 20.4527 49.5845 20 50.0232 19.692C50.4712 19.3747 50.9985 19.216 51.6052 19.216ZM52.2632 20.91C51.9365 20.91 51.6612 20.9987 51.4372 21.176C51.2225 21.344 51.0592 21.6007 50.9472 21.946C50.8445 22.282 50.7932 22.7067 50.7932 23.22C50.7932 23.9853 50.9145 24.5593 51.1572 24.942C51.3998 25.3153 51.7778 25.502 52.2912 25.502C52.5618 25.502 52.7952 25.4693 52.9912 25.404C53.1872 25.3293 53.3458 25.2127 53.4672 25.054C53.5978 24.886 53.6958 24.6713 53.7612 24.41C53.8265 24.1487 53.8592 23.8313 53.8592 23.458V23.206C53.8592 22.6553 53.8032 22.212 53.6912 21.876C53.5792 21.54 53.4065 21.2973 53.1732 21.148C52.9398 20.9893 52.6365 20.91 52.2632 20.91ZM61.1365 19.216C61.8459 19.216 62.4525 19.3513 62.9565 19.622C63.4699 19.8927 63.8665 20.2847 64.1465 20.798C64.4265 21.3113 64.5665 21.9413 64.5665 22.688V23.696H59.6385C59.6572 24.284 59.8299 24.746 60.1565 25.082C60.4925 25.418 60.9545 25.586 61.5425 25.586C62.0372 25.586 62.4852 25.5393 62.8865 25.446C63.2879 25.3433 63.7032 25.1893 64.1325 24.984V26.594C63.7592 26.7807 63.3625 26.916 62.9425 27C62.5319 27.0933 62.0325 27.14 61.4445 27.14C60.6792 27.14 60.0025 27 59.4145 26.72C58.8265 26.4307 58.3645 25.9967 58.0285 25.418C57.6925 24.8393 57.5245 24.1113 57.5245 23.234C57.5245 22.338 57.6739 21.596 57.9725 21.008C58.2805 20.4107 58.7052 19.9627 59.2465 19.664C59.7879 19.3653 60.4179 19.216 61.1365 19.216ZM61.1505 20.7C60.7492 20.7 60.4132 20.8307 60.1425 21.092C59.8812 21.3533 59.7272 21.7593 59.6805 22.31H62.6065C62.6065 22.002 62.5505 21.7267 62.4385 21.484C62.3359 21.2413 62.1772 21.05 61.9625 20.91C61.7479 20.77 61.4772 20.7 61.1505 20.7ZM70.598 19.216C71.4193 19.216 72.0773 19.44 72.572 19.888C73.0667 20.3267 73.314 21.036 73.314 22.016V27H71.228V22.534C71.228 21.9833 71.13 21.5727 70.934 21.302C70.738 21.022 70.4253 20.882 69.996 20.882C69.3613 20.882 68.9273 21.1013 68.694 21.54C68.4607 21.9693 68.344 22.59 68.344 23.402V27H66.258V19.356H67.854L68.134 20.336H68.246C68.414 20.0747 68.6193 19.8647 68.862 19.706C69.1047 19.538 69.3753 19.4167 69.674 19.342C69.9727 19.258 70.2807 19.216 70.598 19.216Z" fill="white"/>
<path d="M34.346 40H32.26V30.004H37.986V31.74H34.346V34.316H37.734V36.052H34.346V40ZM42.9256 32.216C43.6349 32.216 44.2416 32.3513 44.7456 32.622C45.2589 32.8927 45.6556 33.2847 45.9356 33.798C46.2156 34.3113 46.3556 34.9413 46.3556 35.688V36.696H41.4276C41.4463 37.284 41.6189 37.746 41.9456 38.082C42.2816 38.418 42.7436 38.586 43.3316 38.586C43.8263 38.586 44.2743 38.5393 44.6756 38.446C45.0769 38.3433 45.4923 38.1893 45.9216 37.984V39.594C45.5483 39.7807 45.1516 39.916 44.7316 40C44.3209 40.0933 43.8216 40.14 43.2336 40.14C42.4683 40.14 41.7916 40 41.2036 39.72C40.6156 39.4307 40.1536 38.9967 39.8176 38.418C39.4816 37.8393 39.3136 37.1113 39.3136 36.234C39.3136 35.338 39.4629 34.596 39.7616 34.008C40.0696 33.4107 40.4943 32.9627 41.0356 32.664C41.5769 32.3653 42.2069 32.216 42.9256 32.216ZM42.9396 33.7C42.5383 33.7 42.2023 33.8307 41.9316 34.092C41.6703 34.3533 41.5163 34.7593 41.4696 35.31H44.3956C44.3956 35.002 44.3396 34.7267 44.2276 34.484C44.1249 34.2413 43.9663 34.05 43.7516 33.91C43.5369 33.77 43.2663 33.7 42.9396 33.7ZM52.3171 32.216C52.4197 32.216 52.5411 32.2207 52.6811 32.23C52.8211 32.2393 52.9331 32.2533 53.0171 32.272L52.8631 34.232C52.7977 34.2133 52.6997 34.1993 52.5691 34.19C52.4477 34.1713 52.3404 34.162 52.2471 34.162C51.9764 34.162 51.7151 34.1993 51.4631 34.274C51.2111 34.3393 50.9824 34.4467 50.7771 34.596C50.5811 34.7453 50.4224 34.946 50.3011 35.198C50.1891 35.4407 50.1331 35.744 50.1331 36.108V40H48.0471V32.356H49.6291L49.9371 33.644H50.0351C50.1844 33.3827 50.3711 33.1447 50.5951 32.93C50.8191 32.7153 51.0757 32.5427 51.3651 32.412C51.6637 32.2813 51.9811 32.216 52.3171 32.216ZM57.2391 40.14C56.4831 40.14 55.8391 40.0047 55.3071 39.734C54.7751 39.454 54.3691 39.0247 54.0891 38.446C53.8091 37.8673 53.6691 37.1253 53.6691 36.22C53.6691 35.2867 53.8277 34.526 54.1451 33.938C54.4624 33.35 54.9011 32.916 55.4611 32.636C56.0304 32.356 56.6837 32.216 57.4211 32.216C57.9437 32.216 58.3964 32.2673 58.7791 32.37C59.1711 32.4727 59.5117 32.594 59.8011 32.734L59.1851 34.344C58.8584 34.2133 58.5504 34.106 58.2611 34.022C57.9811 33.938 57.7011 33.896 57.4211 33.896C57.0571 33.896 56.7537 33.9847 56.5111 34.162C56.2684 34.33 56.0864 34.5867 55.9651 34.932C55.8531 35.268 55.7971 35.6927 55.7971 36.206C55.7971 36.71 55.8577 37.13 55.9791 37.466C56.1097 37.7927 56.2964 38.04 56.5391 38.208C56.7817 38.3667 57.0757 38.446 57.4211 38.446C57.8597 38.446 58.2471 38.39 58.5831 38.278C58.9191 38.1567 59.2457 37.9933 59.5631 37.788V39.566C59.2457 39.7713 58.9097 39.916 58.5551 40C58.2097 40.0933 57.7711 40.14 57.2391 40.14ZM63.4085 31.53C63.4085 31.9033 63.3945 32.2627 63.3665 32.608C63.3478 32.9533 63.3291 33.196 63.3105 33.336H63.4225C63.5905 33.0747 63.7865 32.8647 64.0105 32.706C64.2345 32.538 64.4818 32.4167 64.7525 32.342C65.0325 32.258 65.3265 32.216 65.6345 32.216C66.1851 32.216 66.6658 32.314 67.0765 32.51C67.4871 32.706 67.8045 33.0093 68.0285 33.42C68.2618 33.8307 68.3785 34.3627 68.3785 35.016V40H66.2925V35.534C66.2925 34.9833 66.1898 34.5727 65.9845 34.302C65.7885 34.022 65.4805 33.882 65.0605 33.882C64.6405 33.882 64.3091 33.98 64.0665 34.176C63.8331 34.372 63.6651 34.6567 63.5625 35.03C63.4598 35.4033 63.4085 35.8607 63.4085 36.402V40H61.3225V29.36H63.4085V31.53ZM77.4676 36.164C77.4676 36.7987 77.379 37.3633 77.2016 37.858C77.0336 38.3527 76.7863 38.7727 76.4596 39.118C76.1423 39.454 75.755 39.7107 75.2976 39.888C74.8403 40.056 74.3223 40.14 73.7436 40.14C73.2116 40.14 72.717 40.056 72.2596 39.888C71.8116 39.7107 71.4243 39.454 71.0976 39.118C70.771 38.7727 70.5143 38.3527 70.3276 37.858C70.1503 37.3633 70.0616 36.7987 70.0616 36.164C70.0616 35.3147 70.211 34.6007 70.5096 34.022C70.8083 33.434 71.2376 32.986 71.7976 32.678C72.3576 32.37 73.0203 32.216 73.7856 32.216C74.5043 32.216 75.139 32.37 75.6896 32.678C76.2403 32.986 76.6743 33.434 76.9916 34.022C77.309 34.6007 77.4676 35.3147 77.4676 36.164ZM72.1896 36.164C72.1896 36.668 72.241 37.0927 72.3436 37.438C72.4556 37.774 72.6283 38.0307 72.8616 38.208C73.095 38.376 73.3983 38.46 73.7716 38.46C74.145 38.46 74.4436 38.376 74.6676 38.208C74.901 38.0307 75.069 37.774 75.1716 37.438C75.2836 37.0927 75.3396 36.668 75.3396 36.164C75.3396 35.66 75.2836 35.24 75.1716 34.904C75.069 34.568 74.901 34.316 74.6676 34.148C74.4343 33.98 74.131 33.896 73.7576 33.896C73.207 33.896 72.8056 34.0873 72.5536 34.47C72.311 34.8433 72.1896 35.408 72.1896 36.164ZM84.6162 37.326C84.5788 37.1673 84.5228 36.934 84.4482 36.626C84.3828 36.3087 84.3082 35.9727 84.2242 35.618C84.1402 35.254 84.0608 34.9227 83.9862 34.624C83.9115 34.316 83.8602 34.092 83.8322 33.952H83.7762C83.7482 34.092 83.6968 34.316 83.6222 34.624C83.5568 34.9227 83.4822 35.254 83.3982 35.618C83.3142 35.9727 83.2348 36.3087 83.1602 36.626C83.0855 36.9433 83.0295 37.186 82.9922 37.354L82.3762 40H80.1362L77.9662 32.356H80.0382L80.9202 35.744C80.9855 35.9773 81.0415 36.2573 81.0882 36.584C81.1442 36.9107 81.1955 37.228 81.2422 37.536C81.2888 37.8347 81.3215 38.0727 81.3402 38.25H81.3962C81.4055 38.1193 81.4242 37.9467 81.4522 37.732C81.4802 37.508 81.5128 37.2793 81.5502 37.046C81.5968 36.8127 81.6342 36.6027 81.6622 36.416C81.6995 36.22 81.7275 36.0893 81.7462 36.024L82.6842 32.356H84.9802L85.8762 36.024C85.9135 36.1547 85.9555 36.3647 86.0022 36.654C86.0582 36.9433 86.1048 37.2373 86.1422 37.536C86.1888 37.8347 86.2122 38.0727 86.2122 38.25H86.2682C86.2868 38.0913 86.3195 37.8627 86.3662 37.564C86.4128 37.256 86.4642 36.934 86.5202 36.598C86.5855 36.262 86.6508 35.9773 86.7162 35.744L87.6262 32.356H89.6702L87.4722 40H85.2042L84.6162 37.326Z" fill="white"/>
</svg>
