<svg width="116" height="58" viewBox="0 0 116 58" fill="none" xmlns="http://www.w3.org/2000/svg">
<path d="M0.967999 16.14L14.12 16.14L14.12 38.988H0.967999V35.02H9.288V29.996H1.544L1.544 26.028H9.288L9.288 20.14H0.967999L0.967999 16.14Z" fill="#3DCFB6"/>
<path d="M19.648 39H14.88V16.152H27.968V20.12H19.648V26.008H27.392V29.976H19.648V39Z" fill="#3DCFB6"/>
<path d="M32.96 26V16.2H41.696V18.65H35.858V23.55H41.948V26H32.96ZM34.514 22.192V19.896H41.178V22.192H34.514ZM48.6104 26.154C47.957 26.154 47.3924 26.0187 46.9164 25.748C46.4497 25.468 46.0904 25.0573 45.8384 24.516C45.5864 23.9653 45.4604 23.3027 45.4604 22.528V18.51H48.3024V22.192C48.3024 22.5373 48.349 22.822 48.4424 23.046C48.5357 23.27 48.685 23.438 48.8904 23.55C49.0957 23.662 49.3617 23.718 49.6884 23.718C49.9124 23.718 50.1224 23.6853 50.3184 23.62C50.5237 23.5453 50.701 23.4473 50.8504 23.326C51.009 23.2047 51.1304 23.0507 51.2144 22.864C51.3077 22.6773 51.3544 22.4767 51.3544 22.262V18.51H54.1964V26H51.5924L51.4244 24.488L51.9564 24.32C51.8444 24.628 51.6344 24.9267 51.3264 25.216C51.0277 25.496 50.645 25.7247 50.1784 25.902C49.721 26.07 49.1984 26.154 48.6104 26.154ZM62.8573 29.22C61.952 29.22 61.14 29.122 60.4213 28.926C59.7027 28.73 59.1147 28.492 58.6573 28.212L59.6093 26.252C59.824 26.3453 60.062 26.4433 60.3233 26.546C60.594 26.658 60.8927 26.7467 61.2193 26.812C61.5553 26.8867 61.9333 26.924 62.3533 26.924C62.8107 26.924 63.2027 26.8447 63.5293 26.686C63.856 26.5367 64.1033 26.308 64.2713 26C64.4393 25.692 64.5233 25.3 64.5233 24.824V24.11L65.1533 24.166C65.0693 24.474 64.8593 24.754 64.5233 25.006C64.1967 25.2487 63.7813 25.44 63.2773 25.58C62.7733 25.72 62.2227 25.79 61.6253 25.79C60.8693 25.79 60.1973 25.6453 59.6093 25.356C59.0307 25.0573 58.5827 24.6373 58.2653 24.096C57.948 23.5547 57.7893 22.92 57.7893 22.192C57.7893 21.4267 57.9573 20.7593 58.2933 20.19C58.6293 19.6113 59.096 19.1633 59.6933 18.846C60.2907 18.5193 60.9813 18.356 61.7653 18.356C61.9987 18.356 62.26 18.3793 62.5493 18.426C62.8387 18.4633 63.1327 18.5287 63.4313 18.622C63.73 18.706 64.0053 18.8133 64.2573 18.944C64.5187 19.0747 64.7287 19.2333 64.8873 19.42C65.0553 19.6067 65.1487 19.812 65.1673 20.036L64.5933 20.162L64.7473 18.51H67.3793V24.866C67.3793 25.594 67.258 26.2287 67.0153 26.77C66.782 27.3207 66.46 27.778 66.0493 28.142C65.6387 28.506 65.158 28.7767 64.6073 28.954C64.066 29.1313 63.4827 29.22 62.8573 29.22ZM62.6473 23.76C63.058 23.76 63.4033 23.6993 63.6833 23.578C63.9727 23.4567 64.1967 23.2793 64.3553 23.046C64.514 22.8127 64.5933 22.5373 64.5933 22.22C64.5933 21.8933 64.514 21.618 64.3553 21.394C64.206 21.1607 63.9867 20.9833 63.6973 20.862C63.4173 20.7313 63.0673 20.666 62.6473 20.666C62.218 20.666 61.8447 20.7313 61.5273 20.862C61.2193 20.9833 60.9813 21.1607 60.8133 21.394C60.6547 21.618 60.5753 21.8933 60.5753 22.22C60.5753 22.5373 60.6547 22.8127 60.8133 23.046C60.9813 23.2793 61.2193 23.4567 61.5273 23.578C61.8447 23.6993 62.218 23.76 62.6473 23.76ZM75.798 26.14C74.7807 26.14 73.894 25.972 73.138 25.636C72.3914 25.3 71.8174 24.838 71.416 24.25C71.0147 23.662 70.814 22.9947 70.814 22.248C70.814 21.66 70.9307 21.128 71.164 20.652C71.4067 20.1667 71.738 19.756 72.158 19.42C72.5874 19.084 73.082 18.8227 73.642 18.636C74.202 18.4493 74.79 18.356 75.406 18.356C76.0594 18.356 76.6567 18.454 77.198 18.65C77.7487 18.8367 78.2247 19.1027 78.626 19.448C79.0367 19.7933 79.3494 20.204 79.564 20.68C79.788 21.156 79.8907 21.6787 79.872 22.248L79.858 22.864H72.578L72.256 21.352H77.604L77.338 21.786V21.534C77.3194 21.338 77.226 21.1653 77.058 21.016C76.89 20.8667 76.666 20.75 76.386 20.666C76.1154 20.582 75.8074 20.54 75.462 20.54C75.0887 20.54 74.7434 20.596 74.426 20.708C74.118 20.8107 73.8707 20.974 73.684 21.198C73.4974 21.4127 73.404 21.688 73.404 22.024C73.404 22.36 73.5114 22.668 73.726 22.948C73.95 23.2187 74.272 23.438 74.692 23.606C75.1214 23.7647 75.63 23.844 76.218 23.844C76.7874 23.844 77.24 23.788 77.576 23.676C77.912 23.564 78.164 23.466 78.332 23.382L79.564 25.104C79.1814 25.356 78.7847 25.5567 78.374 25.706C77.9727 25.8553 77.5574 25.9627 77.128 26.028C76.708 26.1027 76.2647 26.14 75.798 26.14ZM83.5538 26V18.51H86.1858L86.3258 20.428L85.6258 20.624C85.7378 20.204 85.9431 19.826 86.2418 19.49C86.5405 19.1447 86.9278 18.8693 87.4038 18.664C87.8891 18.4587 88.4305 18.356 89.0278 18.356C89.7091 18.356 90.2878 18.496 90.7638 18.776C91.2398 19.0467 91.6038 19.42 91.8558 19.896C92.1171 20.372 92.2478 20.9133 92.2478 21.52V26H89.4058V22.108C89.4058 21.8187 89.3451 21.5667 89.2238 21.352C89.1025 21.128 88.9345 20.9553 88.7198 20.834C88.5051 20.7127 88.2485 20.652 87.9498 20.652C87.6791 20.652 87.4458 20.6987 87.2498 20.792C87.0631 20.876 86.9045 20.9927 86.7738 21.142C86.6431 21.282 86.5451 21.436 86.4798 21.604C86.4238 21.7627 86.3958 21.9213 86.3958 22.08V26H84.9818C84.5338 26 84.1885 26 83.9458 26C83.7125 26 83.5818 26 83.5538 26Z" fill="white"/>
<path d="M32.96 39.14V29.34H35.984V39.14H32.96ZM34.29 35.794V33.414H40.702V35.794H34.29ZM34.43 31.916V29.34H41.22V31.916H34.43ZM48.7961 39.28C47.7787 39.28 46.8921 39.112 46.1361 38.776C45.3894 38.44 44.8154 37.978 44.4141 37.39C44.0127 36.802 43.8121 36.1347 43.8121 35.388C43.8121 34.8 43.9287 34.268 44.1621 33.792C44.4047 33.3067 44.7361 32.896 45.1561 32.56C45.5854 32.224 46.0801 31.9627 46.6401 31.776C47.2001 31.5893 47.7881 31.496 48.4041 31.496C49.0574 31.496 49.6547 31.594 50.1961 31.79C50.7467 31.9767 51.2227 32.2427 51.6241 32.588C52.0347 32.9333 52.3474 33.344 52.5621 33.82C52.7861 34.296 52.8887 34.8187 52.8701 35.388L52.8561 36.004H45.5761L45.2541 34.492H50.6021L50.3361 34.926V34.674C50.3174 34.478 50.2241 34.3053 50.0561 34.156C49.8881 34.0067 49.6641 33.89 49.3841 33.806C49.1134 33.722 48.8054 33.68 48.4601 33.68C48.0867 33.68 47.7414 33.736 47.4241 33.848C47.1161 33.9507 46.8687 34.114 46.6821 34.338C46.4954 34.5527 46.4021 34.828 46.4021 35.164C46.4021 35.5 46.5094 35.808 46.7241 36.088C46.9481 36.3587 47.2701 36.578 47.6901 36.746C48.1194 36.9047 48.6281 36.984 49.2161 36.984C49.7854 36.984 50.2381 36.928 50.5741 36.816C50.9101 36.704 51.1621 36.606 51.3301 36.522L52.5621 38.244C52.1794 38.496 51.7827 38.6967 51.3721 38.846C50.9707 38.9953 50.5554 39.1027 50.1261 39.168C49.7061 39.2427 49.2627 39.28 48.7961 39.28ZM56.5519 39.14V31.65H59.1839L59.3519 34.408L58.5119 34.352C58.6612 33.82 58.9039 33.3393 59.2399 32.91C59.5759 32.4713 59.9772 32.126 60.4439 31.874C60.9105 31.622 61.4052 31.496 61.9279 31.496C62.2265 31.496 62.5159 31.524 62.7959 31.58C63.0759 31.636 63.3232 31.7153 63.5379 31.818L62.7539 34.912C62.5952 34.7907 62.3525 34.6927 62.0259 34.618C61.7085 34.534 61.3865 34.492 61.0599 34.492C60.7705 34.492 60.5185 34.534 60.3039 34.618C60.0892 34.6927 59.9119 34.8047 59.7719 34.954C59.6412 35.094 59.5432 35.2527 59.4779 35.43C59.4219 35.598 59.3939 35.78 59.3939 35.976V39.14H56.5519ZM70.7268 39.28C69.7841 39.28 68.9441 39.112 68.2068 38.776C67.4788 38.44 66.9094 37.978 66.4988 37.39C66.0974 36.802 65.8968 36.1347 65.8968 35.388C65.8968 34.632 66.0974 33.9647 66.4988 33.386C66.9001 32.798 67.4508 32.336 68.1508 32C68.8601 31.664 69.6534 31.496 70.5308 31.496C71.3521 31.496 72.1034 31.594 72.7848 31.79C73.4754 31.986 74.0774 32.2753 74.5908 32.658L73.0368 34.618C72.8594 34.4873 72.6541 34.3707 72.4208 34.268C72.1874 34.156 71.9354 34.072 71.6647 34.016C71.4034 33.9507 71.1234 33.918 70.8248 33.918C70.3861 33.918 70.0174 33.9787 69.7188 34.1C69.4201 34.2213 69.1914 34.3893 69.0328 34.604C68.8741 34.8187 68.7948 35.0753 68.7948 35.374C68.7948 35.6633 68.8694 35.92 69.0188 36.144C69.1774 36.368 69.4061 36.5407 69.7048 36.662C70.0128 36.7833 70.3768 36.844 70.7968 36.844C71.1794 36.844 71.5108 36.816 71.7908 36.76C72.0708 36.704 72.3134 36.6387 72.5188 36.564C72.7241 36.4893 72.9061 36.41 73.0648 36.326L74.5768 38.258C74.0728 38.566 73.4988 38.8133 72.8548 39C72.2201 39.1867 71.5108 39.28 70.7268 39.28ZM78.0714 39.14V28.78H80.8434V33.568L80.1014 33.862C80.1947 33.4047 80.4001 33.0033 80.7174 32.658C81.0441 32.3033 81.4501 32.0233 81.9354 31.818C82.4207 31.6033 82.9574 31.496 83.5454 31.496C84.2361 31.496 84.8194 31.636 85.2954 31.916C85.7807 32.196 86.1447 32.574 86.3874 33.05C86.6394 33.5167 86.7654 34.0393 86.7654 34.618V39.14H83.9234V35.29C83.9234 34.982 83.8627 34.716 83.7414 34.492C83.6201 34.268 83.4521 34.1 83.2374 33.988C83.0321 33.8667 82.7801 33.8013 82.4814 33.792C82.2387 33.792 82.0241 33.8293 81.8374 33.904C81.6507 33.9787 81.4874 34.086 81.3474 34.226C81.2074 34.3567 81.1001 34.5153 81.0254 34.702C80.9507 34.8887 80.9134 35.1033 80.9134 35.346V39.14H79.4994C79.0514 39.14 78.7061 39.14 78.4634 39.14C78.2301 39.14 78.0994 39.14 78.0714 39.14ZM95.3541 39.28C94.3741 39.28 93.5014 39.1167 92.7361 38.79C91.9801 38.454 91.3921 37.992 90.9721 37.404C90.5521 36.816 90.3421 36.144 90.3421 35.388C90.3421 34.6227 90.5521 33.9507 90.9721 33.372C91.3921 32.784 91.9801 32.3267 92.7361 32C93.5014 31.664 94.3741 31.496 95.3541 31.496C96.3434 31.496 97.2114 31.664 97.9581 32C98.7047 32.3267 99.2881 32.784 99.7081 33.372C100.137 33.9507 100.352 34.6227 100.352 35.388C100.352 36.144 100.137 36.816 99.7081 37.404C99.2881 37.992 98.7047 38.454 97.9581 38.79C97.2114 39.1167 96.3434 39.28 95.3541 39.28ZM95.3681 36.9C95.7601 36.9 96.1147 36.8393 96.4321 36.718C96.7494 36.5873 97.0061 36.41 97.2021 36.186C97.3981 35.9527 97.4914 35.6867 97.4821 35.388C97.4914 35.08 97.3981 34.814 97.2021 34.59C97.0061 34.3567 96.7494 34.1793 96.4321 34.058C96.1147 33.9273 95.7601 33.862 95.3681 33.862C94.9667 33.862 94.5981 33.9273 94.2621 34.058C93.9354 34.1793 93.6787 34.3567 93.4921 34.59C93.3054 34.814 93.2121 35.08 93.2121 35.388C93.2121 35.6867 93.3054 35.9527 93.4921 36.186C93.6787 36.41 93.9354 36.5873 94.2621 36.718C94.5981 36.8393 94.9667 36.9 95.3681 36.9ZM105.216 39.14L102.514 31.65H105.51L106.84 36.074L106.56 36.032L108.114 32.462H109.934L111.628 36.032L111.362 36.06L112.552 31.65H115.618L112.846 39.14H110.592L108.716 34.646H109.444L107.47 39.14H105.216Z" fill="white"/>
</svg>
