<svg width="98" height="58" viewBox="0 0 98 58" fill="none" xmlns="http://www.w3.org/2000/svg">
<path d="M0.967999 16.14L14.12 16.14L14.12 38.988H0.967999V35.02H9.288V29.996H1.544L1.544 26.028H9.288L9.288 20.14H0.967999L0.967999 16.14Z" fill="#3DCFB6"/>
<path d="M19.648 39H14.88V16.152H27.968V20.12H19.648V26.008H27.392V29.976H19.648V39Z" fill="#3DCFB6"/>
<path d="M33.548 26.364C32.9227 26.364 32.4793 26.1867 32.218 25.832C31.966 25.468 31.84 24.922 31.84 24.194C31.84 23.7273 31.9147 23.0273 32.064 22.094C32.2227 21.1513 32.442 19.9053 32.722 18.356L31.98 16.858C32.4187 16.578 32.8853 16.34 33.38 16.144C33.8747 15.9387 34.3693 15.836 34.864 15.836C35.1813 15.836 35.4147 15.9107 35.564 16.06C35.7227 16.2093 35.83 16.396 35.886 16.62C36.2127 16.6107 36.5953 16.5733 37.034 16.508C37.4727 16.4427 37.9347 16.3587 38.42 16.256C38.9053 16.1533 39.3767 16.0367 39.834 15.906C39.8807 16.0833 39.9087 16.2467 39.918 16.396C39.9367 16.5453 39.946 16.6853 39.946 16.816C39.946 17.348 39.8247 17.782 39.582 18.118C39.3393 18.454 39.0127 18.7013 38.602 18.86C38.2007 19.0187 37.7573 19.098 37.272 19.098C36.7493 19.098 36.2267 18.986 35.704 18.762C35.648 19.0793 35.5873 19.4153 35.522 19.77C35.4567 20.1153 35.3867 20.4653 35.312 20.82C35.4613 20.848 35.606 20.8713 35.746 20.89C35.8953 20.9087 36.0447 20.918 36.194 20.918C36.3807 20.8807 36.5907 20.834 36.824 20.778C37.0667 20.7127 37.2767 20.652 37.454 20.596C37.4913 20.7173 37.51 20.8433 37.51 20.974C37.5193 21.0953 37.524 21.1933 37.524 21.268C37.524 21.716 37.37 22.0427 37.062 22.248C36.7633 22.4533 36.4087 22.556 35.998 22.556C35.8207 22.556 35.6527 22.5467 35.494 22.528C35.3353 22.5 35.1767 22.4673 35.018 22.43C34.9713 22.71 34.934 22.976 34.906 23.228C34.878 23.48 34.864 23.7693 34.864 24.096H37.132C37.8413 23.9933 38.5553 23.8113 39.274 23.55C39.3113 23.6527 39.3347 23.76 39.344 23.872C39.3533 23.984 39.358 24.1053 39.358 24.236C39.358 24.5627 39.2927 24.8893 39.162 25.216C39.0313 25.5427 38.8307 25.8133 38.56 26.028C38.2893 26.2427 37.9487 26.35 37.538 26.35C37.3233 26.35 37.104 26.3313 36.88 26.294C36.656 26.2567 36.4227 26.2147 36.18 26.168C36.0027 26.1307 35.8113 26.0933 35.606 26.056C35.41 26.0187 35.1907 25.986 34.948 25.958C34.5 26.2287 34.0333 26.364 33.548 26.364ZM42.79 26.35C42.2113 26.35 41.7586 26.2473 41.432 26.042C41.1146 25.846 40.8906 25.58 40.76 25.244C40.6386 24.8987 40.578 24.5113 40.578 24.082C40.578 23.5873 40.6293 23.0693 40.732 22.528C40.8346 21.9773 40.9373 21.4453 41.04 20.932C41.1426 20.4093 41.194 19.952 41.194 19.56C41.194 18.9813 41.096 18.5567 40.9 18.286C41.2826 18.0807 41.6793 17.9173 42.09 17.796C42.51 17.6653 42.846 17.6 43.098 17.6C43.4806 17.6 43.756 17.6793 43.924 17.838C44.1013 17.9873 44.19 18.2393 44.19 18.594C44.19 18.79 44.162 19.0607 44.106 19.406C44.05 19.742 43.98 20.1107 43.896 20.512C43.812 20.9133 43.7233 21.3193 43.63 21.73C43.546 22.1313 43.476 22.4953 43.42 22.822C43.364 23.1487 43.336 23.4053 43.336 23.592C43.336 23.9373 43.4246 24.1987 43.602 24.376C43.7886 24.5533 44.0126 24.642 44.274 24.642C44.5726 24.642 44.8853 24.53 45.212 24.306C45.5386 24.082 45.8093 23.7553 46.024 23.326C46.0613 23.1207 46.108 22.864 46.164 22.556C46.2293 22.248 46.2993 21.9213 46.374 21.576C46.458 21.2213 46.5326 20.8853 46.598 20.568C46.6726 20.2413 46.738 19.966 46.794 19.742L45.954 18.622C46.3553 18.3327 46.7846 18.09 47.242 17.894C47.6993 17.698 48.166 17.6 48.642 17.6C49.062 17.6 49.3606 17.6793 49.538 17.838C49.7246 17.9873 49.818 18.2393 49.818 18.594C49.818 18.79 49.7806 19.0607 49.706 19.406C49.6406 19.7513 49.5566 20.1387 49.454 20.568C49.3606 20.988 49.2626 21.4267 49.16 21.884C49.0573 22.3413 48.9686 22.7893 48.894 23.228C48.8286 23.6573 48.796 24.0447 48.796 24.39C48.796 24.67 48.8286 24.922 48.894 25.146C48.9686 25.3607 49.0806 25.5333 49.23 25.664C48.7073 26.1213 48.152 26.35 47.564 26.35C46.9666 26.35 46.5513 26.2147 46.318 25.944C46.0846 25.6733 45.968 25.3513 45.968 24.978L45.828 24.908C45.52 25.3653 45.0906 25.72 44.54 25.972C43.9893 26.224 43.406 26.35 42.79 26.35ZM53.5794 29.29C53.15 29.29 52.758 29.2293 52.4034 29.108C52.0487 28.9867 51.764 28.8093 51.5494 28.576C51.344 28.3427 51.2414 28.0627 51.2414 27.736C51.2414 27.5307 51.2834 27.3067 51.3674 27.064C51.4607 26.8213 51.61 26.5647 51.8154 26.294C52.03 26.602 52.2914 26.8353 52.5994 26.994C52.9167 27.162 53.2994 27.246 53.7474 27.246C54.0834 27.246 54.424 27.148 54.7694 26.952C55.1147 26.756 55.4227 26.448 55.6934 26.028C55.964 25.6173 56.1554 25.0807 56.2674 24.418L56.1274 24.348C55.782 24.8613 55.3807 25.2347 54.9234 25.468C54.466 25.692 54.018 25.804 53.5794 25.804C53.0567 25.804 52.604 25.664 52.2214 25.384C51.848 25.104 51.5587 24.7167 51.3534 24.222C51.1574 23.718 51.0594 23.1347 51.0594 22.472C51.0594 21.9213 51.162 21.3613 51.3674 20.792C51.5727 20.2133 51.89 19.686 52.3194 19.21C52.7487 18.7247 53.2947 18.3373 53.9574 18.048C54.6294 17.7493 55.432 17.6 56.3654 17.6C56.552 17.6 56.7294 17.6093 56.8974 17.628C57.0747 17.6373 57.266 17.6653 57.4714 17.712C57.49 17.8053 57.5087 17.9127 57.5274 18.034C57.546 18.146 57.56 18.2673 57.5694 18.398C57.7934 18.2393 58.0174 18.1273 58.2414 18.062C58.4747 17.9873 58.694 17.95 58.8994 17.95C59.2447 17.95 59.492 18.0387 59.6414 18.216C59.7907 18.384 59.8654 18.6453 59.8654 19C59.8654 19.5787 59.8234 20.232 59.7394 20.96C59.6554 21.688 59.52 22.4393 59.3334 23.214C59.1467 23.9887 58.8947 24.7353 58.5774 25.454C58.2694 26.1727 57.882 26.8213 57.4154 27.4C56.958 27.9787 56.412 28.436 55.7774 28.772C55.1427 29.1173 54.41 29.29 53.5794 29.29ZM55.0914 23.676C55.3247 23.676 55.5674 23.6153 55.8194 23.494C56.0714 23.3727 56.3047 23.1813 56.5194 22.92C56.6314 22.3133 56.7387 21.6647 56.8414 20.974C56.944 20.2833 57.042 19.6207 57.1354 18.986C56.4167 18.986 55.8007 19.1307 55.2874 19.42C54.774 19.7093 54.382 20.092 54.1114 20.568C53.8407 21.0347 53.7054 21.5387 53.7054 22.08C53.7054 22.5653 53.8407 22.9527 54.1114 23.242C54.3914 23.5313 54.718 23.676 55.0914 23.676ZM65.1926 26.35C64.3246 26.35 63.5919 26.196 62.9946 25.888C62.3973 25.58 61.9446 25.1507 61.6366 24.6C61.3379 24.04 61.1886 23.396 61.1886 22.668C61.1886 21.912 61.3239 21.226 61.5946 20.61C61.8746 19.9847 62.2619 19.448 62.7566 19C63.2513 18.552 63.8253 18.2067 64.4786 17.964C65.1413 17.7213 65.8553 17.6 66.6206 17.6C67.5259 17.6 68.1933 17.8007 68.6226 18.202C69.0519 18.6033 69.2666 19.1073 69.2666 19.714C69.2666 20.2367 69.0939 20.7313 68.7486 21.198C68.4126 21.6553 67.8666 22.0287 67.1106 22.318C66.3546 22.598 65.3466 22.7427 64.0866 22.752C64.1146 23.3493 64.2499 23.8207 64.4926 24.166C64.7446 24.502 65.0573 24.67 65.4306 24.67C65.6173 24.67 65.8133 24.628 66.0186 24.544C66.2239 24.4507 66.3966 24.292 66.5366 24.068C66.6766 23.8347 66.7466 23.5173 66.7466 23.116C67.3813 23.116 67.8806 23.186 68.2446 23.326C68.6086 23.466 68.7906 23.718 68.7906 24.082C68.7906 24.418 68.6459 24.7633 68.3566 25.118C68.0673 25.4633 67.6519 25.7573 67.1106 26C66.5786 26.2333 65.9393 26.35 65.1926 26.35ZM64.2126 21.632C64.8939 21.576 65.4399 21.45 65.8506 21.254C66.2613 21.058 66.5599 20.834 66.7466 20.582C66.9333 20.33 67.0266 20.0967 67.0266 19.882C67.0266 19.6953 66.9706 19.5413 66.8586 19.42C66.7466 19.2987 66.5879 19.238 66.3826 19.238C66.0466 19.238 65.7339 19.3547 65.4446 19.588C65.1553 19.8213 64.9033 20.1247 64.6886 20.498C64.4833 20.862 64.3246 21.24 64.2126 21.632ZM72.1678 26.35C71.5798 26.35 71.1598 26.2007 70.9078 25.902C70.6558 25.6033 70.5298 25.174 70.5298 24.614C70.5298 24.418 70.5578 24.1193 70.6138 23.718C70.6698 23.3073 70.7398 22.8547 70.8238 22.36C70.9171 21.856 71.0151 21.352 71.1178 20.848C71.2204 20.344 71.3184 19.896 71.4118 19.504L70.6838 18.384C71.0664 18.1693 71.4771 17.9873 71.9158 17.838C72.3638 17.6793 72.8164 17.6 73.2738 17.6C73.6658 17.6 73.9551 17.698 74.1418 17.894C74.3284 18.0807 74.4218 18.3373 74.4218 18.664C74.4218 18.9067 74.3891 19.1587 74.3238 19.42C74.2584 19.6813 74.1838 19.9053 74.0998 20.092L74.2398 20.162C74.7904 19.2193 75.3924 18.5567 76.0458 18.174C76.6991 17.7913 77.3664 17.6 78.0478 17.6C78.6171 17.6 79.0418 17.74 79.3218 18.02C79.6018 18.2907 79.7418 18.7153 79.7418 19.294C79.7418 19.798 79.6718 20.3347 79.5318 20.904C79.4011 21.464 79.2658 22.0427 79.1258 22.64C78.9858 23.228 78.9158 23.8113 78.9158 24.39C78.9158 24.9687 79.0138 25.3933 79.2098 25.664C78.7151 26.1213 78.2018 26.35 77.6698 26.35C77.0818 26.35 76.6618 26.2007 76.4098 25.902C76.1578 25.6033 76.0318 25.174 76.0318 24.614C76.0318 24.306 76.0738 23.9653 76.1578 23.592C76.2418 23.2093 76.3398 22.822 76.4518 22.43C76.5638 22.038 76.6618 21.6693 76.7458 21.324C76.8298 20.9787 76.8718 20.68 76.8718 20.428C76.8718 20.232 76.8344 20.078 76.7598 19.966C76.6944 19.854 76.5731 19.798 76.3958 19.798C76.1438 19.798 75.8498 19.91 75.5138 20.134C75.1778 20.358 74.8464 20.6753 74.5198 21.086C74.2024 21.4873 73.9364 21.968 73.7218 22.528C73.5164 23.088 73.4138 23.7087 73.4138 24.39C73.4138 24.9687 73.5118 25.3933 73.7078 25.664C73.2131 26.1213 72.6998 26.35 72.1678 26.35Z" fill="white"/>
<path d="M33.548 39.504C32.9227 39.504 32.4793 39.3267 32.218 38.972C31.966 38.608 31.84 38.062 31.84 37.334C31.84 36.8673 31.9147 36.1673 32.064 35.234C32.2227 34.2913 32.442 33.0453 32.722 31.496L31.98 29.998C32.4187 29.718 32.8853 29.48 33.38 29.284C33.8747 29.0787 34.3693 28.976 34.864 28.976C35.1813 28.976 35.4147 29.0507 35.564 29.2C35.7227 29.3493 35.83 29.536 35.886 29.76C36.3527 29.7413 36.9313 29.6667 37.622 29.536C38.3127 29.4053 39.0033 29.242 39.694 29.046C39.7687 29.466 39.806 29.8207 39.806 30.11C39.806 30.5207 39.6987 30.8707 39.484 31.16C39.2693 31.4493 38.98 31.6687 38.616 31.818C38.2613 31.958 37.8647 32.028 37.426 32.028C37.1367 32.028 36.8567 31.9907 36.586 31.916C36.3247 31.8413 36.0493 31.734 35.76 31.594C35.704 31.9393 35.634 32.3173 35.55 32.728C35.466 33.1293 35.3867 33.5353 35.312 33.946C35.4613 33.9833 35.6107 34.0113 35.76 34.03C35.9093 34.0487 36.0587 34.058 36.208 34.058C36.3947 34.0207 36.6047 33.974 36.838 33.918C37.0807 33.8527 37.2907 33.792 37.468 33.736C37.5053 33.8573 37.524 33.9833 37.524 34.114C37.5333 34.2353 37.538 34.3333 37.538 34.408C37.538 34.856 37.384 35.1827 37.076 35.388C36.7773 35.5933 36.4227 35.696 36.012 35.696C35.8253 35.696 35.6527 35.6867 35.494 35.668C35.3353 35.64 35.1767 35.6073 35.018 35.57C34.9153 36.158 34.864 36.5827 34.864 36.844C34.864 37.32 34.8967 37.7213 34.962 38.048C35.0367 38.3747 35.144 38.65 35.284 38.874C34.724 39.294 34.1453 39.504 33.548 39.504ZM42.8938 39.49C42.0258 39.49 41.2931 39.336 40.6958 39.028C40.0984 38.72 39.6458 38.2907 39.3378 37.74C39.0391 37.18 38.8898 36.536 38.8898 35.808C38.8898 35.052 39.0251 34.366 39.2958 33.75C39.5758 33.1247 39.9631 32.588 40.4578 32.14C40.9524 31.692 41.5264 31.3467 42.1798 31.104C42.8424 30.8613 43.5564 30.74 44.3218 30.74C45.2271 30.74 45.8944 30.9407 46.3238 31.342C46.7531 31.7433 46.9678 32.2473 46.9678 32.854C46.9678 33.3767 46.7951 33.8713 46.4498 34.338C46.1138 34.7953 45.5678 35.1687 44.8118 35.458C44.0558 35.738 43.0478 35.8827 41.7878 35.892C41.8158 36.4893 41.9511 36.9607 42.1938 37.306C42.4458 37.642 42.7584 37.81 43.1318 37.81C43.3184 37.81 43.5144 37.768 43.7198 37.684C43.9251 37.5907 44.0978 37.432 44.2378 37.208C44.3778 36.9747 44.4478 36.6573 44.4478 36.256C45.0824 36.256 45.5818 36.326 45.9458 36.466C46.3098 36.606 46.4918 36.858 46.4918 37.222C46.4918 37.558 46.3471 37.9033 46.0578 38.258C45.7684 38.6033 45.3531 38.8973 44.8118 39.14C44.2798 39.3733 43.6404 39.49 42.8938 39.49ZM41.9138 34.772C42.5951 34.716 43.1411 34.59 43.5518 34.394C43.9624 34.198 44.2611 33.974 44.4478 33.722C44.6344 33.47 44.7278 33.2367 44.7278 33.022C44.7278 32.8353 44.6718 32.6813 44.5598 32.56C44.4478 32.4387 44.2891 32.378 44.0838 32.378C43.7478 32.378 43.4351 32.4947 43.1458 32.728C42.8564 32.9613 42.6044 33.2647 42.3898 33.638C42.1844 34.002 42.0258 34.38 41.9138 34.772ZM49.8129 39.49C49.2436 39.49 48.8376 39.3407 48.5949 39.042C48.3523 38.7433 48.2309 38.314 48.2309 37.754C48.2309 37.558 48.2589 37.2593 48.3149 36.858C48.3709 36.4473 48.4409 35.9947 48.5249 35.5C48.6183 34.996 48.7163 34.492 48.8189 33.988C48.9216 33.484 49.0196 33.036 49.1129 32.644L48.3849 31.524C48.8703 31.3093 49.3183 31.1273 49.7289 30.978C50.1489 30.8193 50.5223 30.74 50.8489 30.74C51.0916 30.74 51.2689 30.824 51.3809 30.992C51.4929 31.16 51.5489 31.3747 51.5489 31.636C51.5489 31.9347 51.4976 32.2707 51.3949 32.644C51.2923 33.008 51.1896 33.3533 51.0869 33.68L51.2269 33.75C51.5536 32.7887 51.9223 32.0467 52.3329 31.524C52.7529 31.0013 53.2196 30.74 53.7329 30.74C54.0689 30.74 54.3396 30.8147 54.5449 30.964C54.7503 31.104 54.8996 31.2813 54.9929 31.496C55.0956 31.7013 55.1469 31.902 55.1469 32.098C55.1469 32.406 55.0676 32.7047 54.9089 32.994C54.7596 33.274 54.5169 33.5073 54.1809 33.694C53.8449 33.8713 53.4016 33.96 52.8509 33.96C52.6363 33.96 52.4263 34.0067 52.2209 34.1C52.0156 34.1933 51.8289 34.3707 51.6609 34.632C51.4929 34.884 51.3576 35.2433 51.2549 35.71C51.1616 36.1767 51.1149 36.7833 51.1149 37.53C51.1149 38.1087 51.2129 38.5333 51.4089 38.804C50.8303 39.2613 50.2983 39.49 49.8129 39.49ZM59.0393 39.49C58.2273 39.49 57.5226 39.336 56.9253 39.028C56.3373 38.7107 55.8799 38.2767 55.5533 37.726C55.2359 37.1753 55.0773 36.536 55.0773 35.808C55.0773 35.052 55.2126 34.366 55.4833 33.75C55.7539 33.1247 56.1366 32.588 56.6313 32.14C57.1259 31.692 57.6999 31.3467 58.3533 31.104C59.0159 30.8613 59.7299 30.74 60.4953 30.74C61.3259 30.74 61.9653 30.8987 62.4133 31.216C62.8706 31.524 63.0993 31.9113 63.0993 32.378C63.0993 32.826 62.9359 33.1667 62.6093 33.4C62.2919 33.6333 61.9279 33.75 61.5173 33.75C61.2373 33.75 60.9433 33.6567 60.6353 33.47C60.3273 33.2833 60.0799 32.994 59.8933 32.602C59.4826 32.77 59.1326 33.0313 58.8433 33.386C58.5633 33.7313 58.3486 34.1187 58.1993 34.548C58.0593 34.968 57.9893 35.3833 57.9893 35.794C57.9893 36.3447 58.1059 36.8207 58.3393 37.222C58.5726 37.614 58.9179 37.81 59.3753 37.81C59.6926 37.81 59.9819 37.6887 60.2433 37.446C60.5046 37.194 60.6353 36.7973 60.6353 36.256C61.2699 36.256 61.7693 36.326 62.1333 36.466C62.4973 36.606 62.6793 36.858 62.6793 37.222C62.6793 37.558 62.5299 37.9033 62.2313 38.258C61.9326 38.6033 61.5126 38.8973 60.9713 39.14C60.4299 39.3733 59.7859 39.49 59.0393 39.49ZM65.993 39.49C65.405 39.49 64.985 39.3407 64.733 39.042C64.481 38.7433 64.355 38.314 64.355 37.754C64.355 37.474 64.3783 37.11 64.425 36.662C64.481 36.214 64.551 35.7193 64.635 35.178C64.719 34.6273 64.8123 34.0673 64.915 33.498C65.0177 32.9193 65.1157 32.3687 65.209 31.846C65.3023 31.314 65.3863 30.8427 65.461 30.432L64.677 29.312C65.1717 29.0227 65.643 28.78 66.091 28.584C66.539 28.388 66.987 28.29 67.435 28.29C67.827 28.29 68.0977 28.3693 68.247 28.528C68.4057 28.6773 68.485 28.9293 68.485 29.284C68.485 29.6667 68.4617 30.0633 68.415 30.474C68.3777 30.8753 68.3263 31.2627 68.261 31.636C68.1957 32.0093 68.1303 32.336 68.065 32.616C68.009 32.896 67.9623 33.1013 67.925 33.232L68.065 33.302C68.6157 32.3593 69.2177 31.6967 69.871 31.314C70.5243 30.9313 71.1917 30.74 71.873 30.74C72.4423 30.74 72.867 30.88 73.147 31.16C73.427 31.4307 73.567 31.8553 73.567 32.434C73.567 32.938 73.497 33.4747 73.357 34.044C73.2263 34.604 73.091 35.1827 72.951 35.78C72.811 36.368 72.741 36.9513 72.741 37.53C72.741 38.1087 72.839 38.5333 73.035 38.804C72.5403 39.2613 72.027 39.49 71.495 39.49C70.907 39.49 70.487 39.3407 70.235 39.042C69.983 38.7433 69.857 38.314 69.857 37.754C69.857 37.446 69.899 37.1053 69.983 36.732C70.067 36.3493 70.165 35.962 70.277 35.57C70.389 35.178 70.487 34.8093 70.571 34.464C70.655 34.1187 70.697 33.82 70.697 33.568C70.697 33.372 70.6597 33.218 70.585 33.106C70.5197 32.994 70.3983 32.938 70.221 32.938C69.969 32.938 69.675 33.05 69.339 33.274C69.003 33.498 68.6717 33.8153 68.345 34.226C68.0277 34.6273 67.7617 35.108 67.547 35.668C67.3417 36.228 67.239 36.8487 67.239 37.53C67.239 38.1087 67.337 38.5333 67.533 38.804C67.0383 39.2613 66.525 39.49 65.993 39.49ZM78.7951 39.49C77.9738 39.49 77.2645 39.336 76.6671 39.028C76.0791 38.7107 75.6265 38.2767 75.3091 37.726C74.9918 37.1753 74.8331 36.536 74.8331 35.808C74.8331 34.8 75.0525 33.918 75.4911 33.162C75.9391 32.3967 76.5505 31.804 77.3251 31.384C78.0998 30.9547 78.9818 30.74 79.9711 30.74C80.1298 30.74 80.2885 30.7493 80.4471 30.768C80.6151 30.7773 80.7925 30.8053 80.9791 30.852C81.0258 30.9827 81.0631 31.1413 81.0911 31.328C81.1191 31.5053 81.1378 31.6967 81.1471 31.902C81.2311 31.874 81.3198 31.8507 81.4131 31.832C81.5158 31.8133 81.6231 31.804 81.7351 31.804C82.0618 31.804 82.3698 31.8927 82.6591 32.07C82.9485 32.238 83.1865 32.504 83.3731 32.868C83.5598 33.232 83.6531 33.694 83.6531 34.254C83.6531 35.0847 83.5131 35.8267 83.2331 36.48C82.9625 37.124 82.5938 37.67 82.1271 38.118C81.6605 38.566 81.1378 38.9067 80.5591 39.14C79.9898 39.3733 79.4018 39.49 78.7951 39.49ZM79.2291 37.768C79.4438 37.768 79.6678 37.7167 79.9011 37.614C80.1345 37.5113 80.3631 37.3247 80.5871 37.054C80.8111 36.7833 80.9978 36.4007 81.1471 35.906C80.7458 35.654 80.4565 35.346 80.2791 34.982C80.1018 34.6087 80.0131 34.198 80.0131 33.75C80.0131 33.6193 80.0365 33.4513 80.0831 33.246C80.1298 33.0407 80.2091 32.8307 80.3211 32.616C80.4425 32.4013 80.6058 32.224 80.8111 32.084C80.1671 32.2147 79.6398 32.4107 79.2291 32.672C78.8185 32.9333 78.4965 33.2367 78.2631 33.582C78.0391 33.918 77.8805 34.268 77.7871 34.632C77.7031 34.9867 77.6611 35.3273 77.6611 35.654C77.6611 36.0273 77.7218 36.3773 77.8431 36.704C77.9645 37.0213 78.1418 37.278 78.3751 37.474C78.6085 37.67 78.8931 37.768 79.2291 37.768ZM87.4729 39.49C87.1649 39.49 86.8616 39.4433 86.5629 39.35C86.2736 39.2567 86.0309 39.0933 85.8349 38.86C85.6483 38.6267 85.5549 38.3047 85.5549 37.894C85.5549 37.894 85.5549 37.7867 85.5549 37.572C85.5643 37.3573 85.5689 37.082 85.5689 36.746C85.5783 36.41 85.5829 36.0553 85.5829 35.682C85.5829 35.2993 85.5829 34.9353 85.5829 34.59C85.5923 34.2447 85.5969 33.9647 85.5969 33.75C85.5969 33.1153 85.5223 32.6113 85.3729 32.238C85.2329 31.8553 85.0556 31.5567 84.8409 31.342C85.3263 30.9407 85.8583 30.74 86.4369 30.74C86.9596 30.74 87.3563 30.894 87.6269 31.202C87.8976 31.5007 88.0796 31.9113 88.1729 32.434C88.2756 32.9567 88.3269 33.54 88.3269 34.184C88.3269 34.5293 88.3223 34.9213 88.3129 35.36C88.3129 35.7893 88.3083 36.2187 88.2989 36.648C88.2896 37.068 88.2756 37.446 88.2569 37.782H88.7329C89.0596 37.2127 89.3489 36.6713 89.6009 36.158C89.8529 35.6447 90.0303 35.1407 90.1329 34.646C90.1329 34.3287 90.1003 33.974 90.0349 33.582C89.9789 33.19 89.9043 32.8213 89.8109 32.476C89.7176 32.1213 89.6196 31.86 89.5169 31.692C89.6569 31.5053 89.8716 31.356 90.1609 31.244C90.4503 31.132 90.7489 31.076 91.0569 31.076C91.2996 31.076 91.5329 31.118 91.7569 31.202C91.9903 31.286 92.1816 31.4213 92.3309 31.608C92.4896 31.7947 92.5689 32.042 92.5689 32.35C92.5689 32.6393 92.5083 32.9473 92.3869 33.274C92.2656 33.5913 92.1303 33.974 91.9809 34.422L91.9249 37.782H92.4009C92.6156 37.3713 92.8443 36.9047 93.0869 36.382C93.3296 35.85 93.5583 35.3087 93.7729 34.758C93.9969 34.2073 94.1789 33.6893 94.3189 33.204C94.4589 32.7093 94.5289 32.2987 94.5289 31.972C94.5289 31.8413 94.5149 31.7247 94.4869 31.622C94.4683 31.5193 94.4403 31.426 94.4029 31.342C94.7296 31.1367 95.0516 30.9873 95.3689 30.894C95.6863 30.7913 95.9756 30.74 96.2369 30.74C96.6476 30.74 96.9416 30.8613 97.1189 31.104C97.2963 31.3467 97.3849 31.664 97.3849 32.056C97.3849 32.392 97.3103 32.7933 97.1609 33.26C97.0209 33.7267 96.8436 34.2167 96.6289 34.73C96.4143 35.234 96.1996 35.7193 95.9849 36.186C95.7703 36.6433 95.5976 37.0353 95.4669 37.362L95.6629 38.174C95.5229 38.286 95.3176 38.4167 95.0469 38.566C94.7763 38.7153 94.4683 38.86 94.1229 39C93.7869 39.14 93.4323 39.2567 93.0589 39.35C92.6949 39.4433 92.3449 39.49 92.0089 39.49C91.5983 39.49 91.2296 39.3967 90.9029 39.21C90.5856 39.0233 90.3709 38.692 90.2589 38.216C89.8483 38.6173 89.4189 38.93 88.9709 39.154C88.5323 39.378 88.0329 39.49 87.4729 39.49Z" fill="white"/>
</svg>
