<svg width="173" height="146" viewBox="0 0 173 146" fill="none" xmlns="http://www.w3.org/2000/svg">
<rect x="0.5" y="0.5" width="171.139" height="145.004" rx="4.5" stroke="#9747FF" stroke-dasharray="10 5"/>
<g clip-path="url(#clip0_3296_4142)">
<g clip-path="url(#clip1_3296_4142)">
<path d="M55.168 27.2938V20H20.7262V40.5741H20.7325L20 68H26.6812L27.0664 52.3515L34.8023 68H39.8353L47.4953 52.522L48.0447 68H54.4291L53.3745 37.9724H47.5774L37.0441 59.3296L27.66 40.1447V27.2938H55.168Z" fill="#3DCFB6"/>
</g>
<path d="M63.2227 43.0238V20.9333H68.2905V38.5713H77.838L77.5303 43.0238H63.2227Z" fill="white"/>
<path d="M84.5747 43.3245C82.7466 43.3245 81.3711 42.7 80.4389 41.4602C79.5068 40.2204 79.0453 38.4828 79.0724 36.2657L79.1358 27.1797H83.8959L83.8326 35.8856C83.8326 36.8177 83.9955 37.5598 84.3303 38.0937C84.6652 38.6367 85.181 38.8991 85.8869 38.8991C86.4842 38.8991 87.0362 38.7091 87.5339 38.338C88.0317 37.967 88.4661 37.3426 88.8371 36.4738C89.2081 35.605 89.5068 34.4105 89.724 32.8991C89.9412 31.3878 90.0588 29.4783 90.086 27.1707H94.6923V43.0077H89.9321L90.1493 39.958C89.5249 41.0349 88.7376 41.8675 87.7873 42.4466C86.8371 43.0258 85.7692 43.3154 84.5837 43.3154L84.5747 43.3245Z" fill="white"/>
<path d="M98.3569 43.0226V20H103.117V33.5022L108.999 27.1855H114.665L107.506 34.8416C107.986 35.1312 108.375 35.5113 108.692 35.9909L109.904 37.8914C110.547 38.8868 111.452 39.3846 112.61 39.3846C113.235 39.3846 113.823 39.2307 114.384 38.914L115.407 42.4253C114.827 42.7601 114.23 42.9954 113.615 43.1402C112.999 43.285 112.357 43.3484 111.669 43.3303C110.321 43.3122 109.208 43.0588 108.321 42.5791C107.443 42.0995 106.647 41.2941 105.941 40.1538L104.728 38.2534C104.438 37.8009 104.167 37.4208 103.923 37.1312C103.678 36.8416 103.407 36.6153 103.117 36.4434V43.0045H98.3569V43.0226Z" fill="white"/>
<path d="M131.122 27.2479V43.0216H126.335L126.489 40.6596C125.348 42.4424 123.656 43.3383 121.421 43.3383C120.009 43.3383 118.805 43.0216 117.81 42.37C116.815 41.7275 116.054 40.8316 115.539 39.6913C115.023 38.551 114.76 37.2479 114.76 35.7727C114.76 34.008 115.122 32.4605 115.846 31.1393C116.57 29.809 117.548 28.7773 118.769 28.0443C119.991 27.3112 121.358 26.9402 122.878 26.9402C123.873 26.9402 124.751 27.1393 125.52 27.5465C126.29 27.9538 126.878 28.4877 127.294 29.1483L127.701 27.2479H131.122ZM123.348 31.0759C122.208 31.0759 121.312 31.5013 120.661 32.3519C120.009 33.2026 119.683 34.2886 119.683 35.6189C119.683 36.7592 119.937 37.637 120.443 38.2614C120.95 38.8859 121.638 39.1936 122.516 39.1936C123.575 39.1936 124.48 38.7592 125.24 37.8904C126 37.0216 126.371 35.8813 126.371 34.4696C126.371 33.4108 126.1 32.5872 125.566 31.9809C125.023 31.3836 124.29 31.0759 123.358 31.0759H123.348Z" fill="white"/>
<path d="M140.599 43.3305C138.3 43.3305 136.554 42.8961 135.377 42.0364C134.192 41.1767 133.504 40.0364 133.296 38.6337L137.251 37.6382C137.377 38.2446 137.721 38.7242 138.273 39.0862C138.834 39.4482 139.604 39.6292 140.572 39.6292C142.128 39.6292 142.907 39.2672 142.907 38.5432C142.907 38.1722 142.68 37.8826 142.237 37.6835C141.794 37.4844 141.07 37.2943 140.074 37.1043C138.21 36.7695 136.762 36.2446 135.73 35.5206C134.699 34.7966 134.192 33.6835 134.192 32.1903C134.192 31.1767 134.481 30.2717 135.061 29.4844C135.64 28.6971 136.436 28.0726 137.459 27.6202C138.472 27.1677 139.649 26.9324 140.97 26.9324C142.69 26.9324 144.119 27.3396 145.251 28.145C146.382 28.9505 147.052 29.9459 147.26 31.1315L143.368 32.1903C143.223 31.7378 142.934 31.3577 142.509 31.0681C142.083 30.7785 141.504 30.6337 140.78 30.6337C140.092 30.6337 139.595 30.7514 139.269 30.9776C138.943 31.2039 138.789 31.4754 138.789 31.783C138.789 32.1541 139.006 32.4527 139.441 32.6699C139.875 32.8871 140.644 33.1134 141.739 33.3396C142.861 33.5477 143.848 33.8283 144.708 34.1993C145.567 34.5613 146.246 35.0591 146.726 35.6925C147.214 36.326 147.459 37.1767 147.459 38.2627C147.459 39.2762 147.16 40.1722 146.572 40.9414C145.984 41.7106 145.169 42.2989 144.128 42.7151C143.088 43.1314 141.911 43.3396 140.581 43.3396L140.599 43.3305Z" fill="white"/>
<path d="M63.168 67.6952L63.9462 45.6047H68.2087L75.9553 61.3151L83.6385 45.6047H87.9009L88.4892 67.6952H83.5752L83.2946 56.1839L77.6023 67.6952H73.901L68.272 56.3106L67.8648 67.6952H63.168Z" fill="white"/>
<path d="M95.3462 67.9842C93.5181 67.9842 92.1425 67.3598 91.2104 66.12C90.2783 64.8801 89.8168 63.1426 89.8439 60.9254L89.9073 51.8394H94.6674L94.6041 60.5453C94.6041 61.4774 94.767 62.2195 95.1018 62.7535C95.4367 63.2964 95.9525 63.5589 96.6584 63.5589C97.2557 63.5589 97.8077 63.3688 98.3054 62.9978C98.8032 62.6268 99.2376 62.0023 99.6086 61.1335C99.9796 60.2648 100.278 59.0702 100.495 57.5589C100.713 56.0476 100.83 54.1381 100.857 51.8304H105.464V67.6675H100.704L100.921 64.6177C100.296 65.6946 99.509 66.5272 98.5588 67.1064C97.6086 67.6856 96.5407 67.9752 95.3552 67.9752L95.3462 67.9842ZM94.5045 50.0114C93.6086 50.0114 92.9389 49.7399 92.4864 49.206C92.0339 48.663 91.7987 48.0929 91.7987 47.4956C91.7987 46.853 92.0249 46.2738 92.4864 45.758C92.9389 45.2422 93.6177 44.9797 94.5045 44.9797C95.3914 44.9797 96.0158 45.2422 96.4774 45.758C96.948 46.2738 97.1742 46.853 97.1742 47.4956C97.1742 48.1019 96.9389 48.663 96.4774 49.206C96.0068 49.749 95.3552 50.0114 94.5045 50.0114ZM101.102 50.0114C100.206 50.0114 99.5271 49.7399 99.0656 49.206C98.595 48.663 98.3688 48.0929 98.3688 47.4956C98.3688 46.853 98.6041 46.2738 99.0656 45.758C99.5362 45.2422 100.215 44.9797 101.102 44.9797C101.989 44.9797 102.604 45.2422 103.066 45.758C103.518 46.2738 103.753 46.853 103.753 47.4956C103.753 48.1019 103.527 48.663 103.066 49.206C102.613 49.749 101.952 50.0114 101.102 50.0114Z" fill="white"/>
<path d="M111.77 67.9795C110.169 67.9795 108.947 67.536 108.087 66.6582C107.227 65.7804 106.793 64.4953 106.793 62.812V44.6401H111.553V62.4682C111.553 63.4184 111.997 63.898 112.893 63.898C113.372 63.898 113.77 63.7804 114.105 63.5541L115.254 66.9478C114.902 67.2374 114.413 67.4817 113.788 67.6808C113.164 67.8799 112.494 67.9795 111.77 67.9795Z" fill="white"/>
<path d="M120.128 67.9795C118.526 67.9795 117.305 67.536 116.445 66.6582C115.585 65.7804 115.151 64.4953 115.151 62.812V44.6401H119.911V62.4682C119.911 63.4184 120.354 63.898 121.25 63.898C121.73 63.898 122.128 63.7804 122.463 63.5541L123.612 66.9478C123.259 67.2374 122.771 67.4817 122.146 67.6808C121.522 67.8799 120.852 67.9795 120.128 67.9795Z" fill="white"/>
<path d="M132.413 68.0017C130.648 68.0017 129.128 67.6759 127.843 67.0243C126.558 66.3727 125.562 65.4496 124.856 64.2551C124.15 63.0605 123.797 61.6487 123.797 60.0107C123.797 58.3727 124.159 56.8886 124.874 55.6216C125.589 54.3546 126.558 53.3682 127.77 52.6623C128.983 51.9565 130.358 51.6035 131.888 51.6035C133.634 51.6035 135.046 52.0017 136.15 52.789C137.245 53.5764 138.015 54.6895 138.44 56.1374C138.865 57.5764 138.956 59.2506 138.702 61.1601H128.657C128.784 61.9474 129.2 62.608 129.906 63.1329C130.612 63.6578 131.571 63.9293 132.802 63.9293C133.363 63.9293 133.951 63.8116 134.576 63.5673C135.2 63.332 135.725 62.97 136.159 62.4904L138.802 65.2867C138.114 66.1193 137.272 66.7709 136.268 67.2596C135.263 67.7483 133.978 67.9926 132.422 67.9926L132.413 68.0017ZM131.978 55.0605C131.146 55.0605 130.449 55.3139 129.879 55.8116C129.309 56.3094 128.929 57.0062 128.748 57.8931H134.693C134.711 56.9157 134.485 56.2008 133.996 55.7483C133.508 55.2958 132.838 55.0605 131.987 55.0605H131.978Z" fill="white"/>
<path d="M151.315 56.462C150.899 56.2991 150.338 56.2177 149.632 56.2177C148.555 56.2177 147.695 56.5977 147.053 57.3489C146.41 58.1091 145.94 59.3308 145.65 61.0231C145.361 62.7154 145.216 64.9416 145.216 67.6927H140.483V57.4303L140.419 51.8647H145.18L144.962 55.8195C145.523 54.3082 146.275 53.2312 147.216 52.5797C148.157 51.9371 149.171 51.6113 150.247 51.6113C150.6 51.6113 150.926 51.6294 151.225 51.6747C151.523 51.7199 151.831 51.7923 152.139 51.8919L151.297 56.462H151.315Z" fill="white"/>
</g>
<g clip-path="url(#clip2_3296_4142)">
<path d="M55.168 85.2955V78.0017H20.7262V98.5758H20.7325L20 126.002H26.6812L27.0664 110.353L34.8023 126.002H39.8353L47.4953 110.524L48.0447 126.002H54.4291L53.3746 95.9741H47.5774L37.0441 117.331L27.66 98.1464V85.2955H55.168Z" stroke="#3DCFB6"/>
</g>
<path d="M63.2227 101.026V78.9351H68.2905V96.573H77.838L77.5303 101.026H63.2227Z" stroke="white"/>
<path d="M84.5747 101.326C82.7466 101.326 81.3711 100.702 80.4389 99.4619C79.5068 98.2221 79.0453 96.4846 79.0724 94.2674L79.1358 85.1814H83.8959L83.8326 93.8873C83.8326 94.8194 83.9955 95.5615 84.3303 96.0954C84.6652 96.6384 85.181 96.9008 85.8869 96.9008C86.4842 96.9008 87.0362 96.7108 87.5339 96.3398C88.0317 95.9687 88.4661 95.3443 88.8371 94.4755C89.2081 93.6067 89.5068 92.4122 89.724 90.9009C89.9412 89.3895 90.0588 87.4801 90.086 85.1724H94.6923V101.009H89.9321L90.1493 97.9597C89.5249 99.0366 88.7376 99.8692 87.7873 100.448C86.8371 101.028 85.7692 101.317 84.5837 101.317L84.5747 101.326Z" stroke="white"/>
<path d="M98.3569 101.024V78.0017H103.117V91.5039L108.999 85.1872H114.665L107.506 92.8433C107.986 93.1329 108.375 93.513 108.692 93.9926L109.904 95.8931C110.547 96.8885 111.452 97.3863 112.61 97.3863C113.235 97.3863 113.823 97.2324 114.384 96.9157L115.407 100.427C114.827 100.762 114.23 100.997 113.615 101.142C112.999 101.287 112.357 101.35 111.669 101.332C110.321 101.314 109.208 101.06 108.321 100.581C107.443 100.101 106.647 99.2958 105.941 98.1555L104.728 96.2551C104.438 95.8026 104.167 95.4225 103.923 95.1329C103.678 94.8433 103.407 94.6171 103.117 94.4451V101.006H98.3569V101.024Z" stroke="white"/>
<path d="M131.122 85.2496V101.023H126.335L126.489 98.6613C125.348 100.444 123.656 101.34 121.421 101.34C120.009 101.34 118.805 101.023 117.81 100.372C116.815 99.7292 116.054 98.8333 115.539 97.693C115.023 96.5527 114.76 95.2496 114.76 93.7745C114.76 92.0098 115.122 90.4622 115.846 89.141C116.57 87.8107 117.548 86.779 118.769 86.046C119.991 85.3129 121.358 84.9419 122.878 84.9419C123.873 84.9419 124.751 85.141 125.52 85.5482C126.29 85.9555 126.878 86.4894 127.294 87.15L127.701 85.2496H131.122ZM123.348 89.0776C122.208 89.0776 121.312 89.503 120.661 90.3536C120.009 91.2043 119.683 92.2903 119.683 93.6206C119.683 94.7609 119.937 95.6387 120.443 96.2631C120.95 96.8876 121.638 97.1953 122.516 97.1953C123.575 97.1953 124.48 96.7609 125.24 95.8921C126 95.0233 126.371 93.8831 126.371 92.4713C126.371 91.4125 126.1 90.5889 125.566 89.9826C125.023 89.3853 124.29 89.0776 123.358 89.0776H123.348Z" stroke="white"/>
<path d="M140.599 101.332C138.3 101.332 136.554 100.898 135.377 100.038C134.192 99.1784 133.504 98.0381 133.296 96.6354L137.251 95.6399C137.377 96.2463 137.721 96.7259 138.273 97.0879C138.834 97.4499 139.604 97.6309 140.572 97.6309C142.128 97.6309 142.907 97.2689 142.907 96.5449C142.907 96.1739 142.68 95.8843 142.237 95.6852C141.794 95.4861 141.07 95.2961 140.074 95.106C138.21 94.7712 136.762 94.2463 135.73 93.5223C134.699 92.7983 134.192 91.6852 134.192 90.192C134.192 89.1784 134.481 88.2734 135.061 87.4861C135.64 86.6988 136.436 86.0744 137.459 85.6219C138.472 85.1694 139.649 84.9341 140.97 84.9341C142.69 84.9341 144.119 85.3413 145.251 86.1467C146.382 86.9522 147.052 87.9477 147.26 89.1332L143.368 90.192C143.223 89.7395 142.934 89.3594 142.509 89.0698C142.083 88.7802 141.504 88.6354 140.78 88.6354C140.092 88.6354 139.595 88.7531 139.269 88.9793C138.943 89.2056 138.789 89.4771 138.789 89.7848C138.789 90.1558 139.006 90.4544 139.441 90.6716C139.875 90.8888 140.644 91.1151 141.739 91.3413C142.861 91.5495 143.848 91.83 144.708 92.201C145.567 92.563 146.246 93.0608 146.726 93.6942C147.214 94.3277 147.459 95.1784 147.459 96.2644C147.459 97.2779 147.16 98.1739 146.572 98.9431C145.984 99.7123 145.169 100.301 144.128 100.717C143.088 101.133 141.911 101.341 140.581 101.341L140.599 101.332Z" stroke="white"/>
<path d="M63.168 125.697L63.9462 103.606H68.2087L75.9553 119.317L83.6385 103.606H87.901L88.4892 125.697H83.5752L83.2946 114.186L77.6023 125.697H73.901L68.272 114.312L67.8648 125.697H63.168Z" stroke="white"/>
<path d="M95.3462 125.986C93.5181 125.986 92.1425 125.361 91.2104 124.122C90.2783 122.882 89.8168 121.144 89.8439 118.927L89.9073 109.841H94.6674L94.6041 118.547C94.6041 119.479 94.767 120.221 95.1018 120.755C95.4367 121.298 95.9525 121.561 96.6584 121.561C97.2557 121.561 97.8077 121.371 98.3054 121C98.8032 120.628 99.2376 120.004 99.6086 119.135C99.9796 118.266 100.278 117.072 100.495 115.561C100.713 114.049 100.83 112.14 100.857 109.832H105.464V125.669H100.704L100.921 122.619C100.296 123.696 99.509 124.529 98.5588 125.108C97.6086 125.687 96.5407 125.977 95.3552 125.977L95.3462 125.986ZM94.5045 108.013C93.6086 108.013 92.9389 107.742 92.4864 107.208C92.0339 106.665 91.7987 106.095 91.7987 105.497C91.7987 104.855 92.0249 104.276 92.4864 103.76C92.9389 103.244 93.6177 102.981 94.5045 102.981C95.3914 102.981 96.0158 103.244 96.4774 103.76C96.948 104.276 97.1742 104.855 97.1742 105.497C97.1742 106.104 96.9389 106.665 96.4774 107.208C96.0068 107.751 95.3552 108.013 94.5045 108.013ZM101.102 108.013C100.206 108.013 99.5271 107.742 99.0656 107.208C98.595 106.665 98.3688 106.095 98.3688 105.497C98.3688 104.855 98.6041 104.276 99.0656 103.76C99.5362 103.244 100.215 102.981 101.102 102.981C101.989 102.981 102.604 103.244 103.066 103.76C103.518 104.276 103.753 104.855 103.753 105.497C103.753 106.104 103.527 106.665 103.066 107.208C102.613 107.751 101.952 108.013 101.102 108.013Z" stroke="white"/>
<path d="M111.77 125.981C110.169 125.981 108.947 125.538 108.087 124.66C107.227 123.782 106.793 122.497 106.793 120.814V102.642H111.553V120.47C111.553 121.42 111.997 121.9 112.893 121.9C113.372 121.9 113.77 121.782 114.105 121.556L115.254 124.949C114.902 125.239 114.413 125.483 113.788 125.683C113.164 125.882 112.494 125.981 111.77 125.981Z" stroke="white"/>
<path d="M120.128 125.981C118.526 125.981 117.305 125.538 116.445 124.66C115.585 123.782 115.151 122.497 115.151 120.814V102.642H119.911V120.47C119.911 121.42 120.354 121.9 121.25 121.9C121.73 121.9 122.128 121.782 122.463 121.556L123.612 124.949C123.259 125.239 122.771 125.483 122.146 125.683C121.522 125.882 120.852 125.981 120.128 125.981Z" stroke="white"/>
<path d="M132.413 126.003C130.648 126.003 129.128 125.678 127.843 125.026C126.558 124.374 125.562 123.451 124.856 122.257C124.15 121.062 123.797 119.65 123.797 118.012C123.797 116.374 124.159 114.89 124.874 113.623C125.589 112.356 126.558 111.37 127.77 110.664C128.983 109.958 130.358 109.605 131.888 109.605C133.634 109.605 135.046 110.003 136.15 110.791C137.245 111.578 138.015 112.691 138.44 114.139C138.865 115.578 138.956 117.252 138.702 119.162H128.657C128.784 119.949 129.2 120.61 129.906 121.135C130.612 121.659 131.571 121.931 132.802 121.931C133.363 121.931 133.951 121.813 134.576 121.569C135.2 121.334 135.725 120.972 136.159 120.492L138.802 123.288C138.114 124.121 137.272 124.773 136.268 125.261C135.263 125.75 133.978 125.994 132.422 125.994L132.413 126.003ZM131.978 113.062C131.146 113.062 130.449 113.316 129.879 113.813C129.309 114.311 128.929 115.008 128.748 115.895H134.693C134.711 114.917 134.485 114.202 133.996 113.75C133.508 113.298 132.838 113.062 131.987 113.062H131.978Z" stroke="white"/>
<path d="M151.315 114.464C150.899 114.301 150.338 114.219 149.632 114.219C148.555 114.219 147.695 114.599 147.053 115.351C146.41 116.111 145.94 117.332 145.65 119.025C145.361 120.717 145.216 122.943 145.216 125.694H140.483V115.432L140.419 109.866H145.18L144.962 113.821C145.524 112.31 146.275 111.233 147.216 110.581C148.157 109.939 149.171 109.613 150.247 109.613C150.6 109.613 150.926 109.631 151.225 109.676C151.523 109.722 151.831 109.794 152.139 109.894L151.297 114.464H151.315Z" stroke="white"/>
<defs>
<clipPath id="clip0_3296_4142">
<rect width="132.139" height="48.0018" fill="white" transform="translate(20 20)"/>
</clipPath>
<clipPath id="clip1_3296_4142">
<rect width="35.168" height="48" fill="white" transform="translate(20 20)"/>
</clipPath>
<clipPath id="clip2_3296_4142">
<rect width="35.168" height="48" fill="white" transform="translate(20 78.0017)"/>
</clipPath>
</defs>
</svg>
